<svg width="28" height="18" viewBox="0 0 28 18" fill="none" xmlns="http://www.w3.org/2000/svg">
<path d="M1.50006 9H2.75006M6.50006 4H4.00006C3.66854 4 3.3506 4.1317 3.11618 4.36612C2.88176 4.60054 2.75006 4.91848 2.75006 5.25V12.75C2.75006 13.0815 2.88176 13.3995 3.11618 13.6339C3.3506 13.8683 3.66854 14 4.00006 14H6.50006M10.2501 9H17.7501M21.5001 4H24.0001C24.3316 4 24.6495 4.1317 24.8839 4.36612C25.1184 4.60054 25.2501 4.91848 25.2501 5.25V12.75C25.2501 13.0815 25.1184 13.3995 24.8839 13.6339C24.6495 13.8683 24.3316 14 24.0001 14H21.5001M26.5001 9H25.2501M6.50006 2.75V15.25C6.50006 15.5815 6.63176 15.8995 6.86618 16.1339C7.1006 16.3683 7.41854 16.5 7.75006 16.5H9.00006C9.33158 16.5 9.64953 16.3683 9.88395 16.1339C10.1184 15.8995 10.2501 15.5815 10.2501 15.25V2.75C10.2501 2.41848 10.1184 2.10054 9.88395 1.86612C9.64953 1.6317 9.33158 1.5 9.00006 1.5H7.75006C7.41854 1.5 7.1006 1.6317 6.86618 1.86612C6.63176 2.10054 6.50006 2.41848 6.50006 2.75ZM17.7501 2.75V15.25C17.7501 15.5815 17.8818 15.8995 18.1162 16.1339C18.3506 16.3683 18.6685 16.5 19.0001 16.5H20.2501C20.5816 16.5 20.8995 16.3683 21.1339 16.1339C21.3684 15.8995 21.5001 15.5815 21.5001 15.25V2.75C21.5001 2.41848 21.3684 2.10054 21.1339 1.86612C20.8995 1.6317 20.5816 1.5 20.2501 1.5H19.0001C18.6685 1.5 18.3506 1.6317 18.1162 1.86612C17.8818 2.10054 17.7501 2.41848 17.7501 2.75Z" stroke="#5A5F72" stroke-width="2.5" stroke-linecap="round" stroke-linejoin="round"/>
</svg>
