<svg width="14" height="20" viewBox="0 0 14 20" fill="none" xmlns="http://www.w3.org/2000/svg">
<path d="M1.09991 13H12.8999M3.99994 1H9.99994M8.99993 1V8.342C10.0517 8.71343 10.9791 9.37069 11.678 10.24C12.3769 11.1093 12.8197 12.1562 12.9566 13.2632C13.0935 14.3702 12.9191 15.4934 12.453 16.5068C11.9869 17.5202 11.2475 18.3835 10.3179 19H3.68293C2.75274 18.3838 2.01282 17.5204 1.54627 16.5068C1.07973 15.4933 0.905049 14.3697 1.04186 13.2624C1.17867 12.155 1.62155 11.1077 2.32074 10.2382C3.01993 9.36865 3.94774 8.71131 4.99993 8.34V1H8.99993Z" stroke="black" stroke-width="2" stroke-linecap="round" stroke-linejoin="round"/>
</svg>
