<svg width="139" height="64" viewBox="0 0 139 64" fill="none" xmlns="http://www.w3.org/2000/svg">
<path d="M0 0H129C134.523 0 139 4.47715 139 10V44C139 49.5228 134.523 54 129 54H0V0Z" fill="#DD7378"/>
<path d="M29.5 54V64L0 54H29.5Z" fill="#8D1212"/>
<path d="M36.134 33V23.28H38.096V26.34H40.904C41.612 26.34 42.098 26.19 42.362 25.89C42.638 25.578 42.776 25.128 42.776 24.54V23.28H44.72V24.486C44.72 25.086 44.612 25.614 44.396 26.07C44.192 26.526 43.814 26.856 43.262 27.06C43.814 27.252 44.18 27.558 44.36 27.978C44.54 28.386 44.63 28.866 44.63 29.418V33H42.686V29.652C42.686 28.956 42.554 28.482 42.29 28.23C42.026 27.966 41.54 27.834 40.832 27.834H38.096V33H36.134ZM52.2893 33.18C51.5573 33.18 50.9153 33.066 50.3633 32.838C49.8233 32.61 49.3313 32.31 48.8873 31.938L48.7793 33H46.9973V23.28H48.9593V30.444C49.2713 30.78 49.6613 31.062 50.1293 31.29C50.5973 31.506 51.1013 31.614 51.6413 31.614C52.3133 31.614 52.8173 31.458 53.1533 31.146C53.4893 30.822 53.6573 30.294 53.6573 29.562V23.28H55.6013V29.652C55.6013 30.78 55.3073 31.65 54.7193 32.262C54.1313 32.874 53.3213 33.18 52.2893 33.18ZM61.5677 33V26.88C61.5677 26.388 61.5137 25.98 61.4057 25.656C61.2977 25.332 61.0937 25.092 60.7937 24.936C60.4937 24.768 60.0497 24.684 59.4617 24.684C59.0777 24.684 58.6577 24.726 58.2017 24.81C57.7577 24.894 57.3557 25.008 56.9957 25.152V23.64C57.3557 23.484 57.7877 23.358 58.2917 23.262C58.8077 23.154 59.3237 23.1 59.8397 23.1C61.1357 23.1 62.0717 23.382 62.6477 23.946C63.2357 24.51 63.5297 25.404 63.5297 26.628V33H61.5677ZM69.8915 33.18C69.0275 33.18 68.2595 33.078 67.5875 32.874C66.9155 32.67 66.3815 32.346 65.9855 31.902C65.6015 31.458 65.4095 30.87 65.4095 30.138C65.4095 29.646 65.5235 29.214 65.7515 28.842C65.9795 28.458 66.3155 28.158 66.7595 27.942C66.3875 27.798 66.0755 27.552 65.8235 27.204C65.5835 26.856 65.4635 26.424 65.4635 25.908C65.4635 24.984 65.7455 24.288 66.3095 23.82C66.8855 23.34 67.6175 23.1 68.5055 23.1C68.8535 23.1 69.1535 23.124 69.4055 23.172C69.6575 23.208 69.8855 23.262 70.0895 23.334V24.828C69.7415 24.732 69.3335 24.684 68.8655 24.684C68.3855 24.684 68.0135 24.78 67.7495 24.972C67.4855 25.164 67.3535 25.476 67.3535 25.908C67.3535 26.364 67.5035 26.694 67.8035 26.898C68.1035 27.09 68.5175 27.186 69.0455 27.186H70.0715L70.1615 28.644H69.0095C67.8695 28.644 67.2995 29.142 67.2995 30.138C67.2995 30.63 67.5035 31.002 67.9115 31.254C68.3195 31.494 68.9495 31.614 69.8015 31.614C71.4935 31.614 72.3395 30.924 72.3395 29.544V23.28H74.2835V29.31C74.2835 30.618 73.9175 31.59 73.1855 32.226C72.4535 32.862 71.3555 33.18 69.8915 33.18ZM78.4897 33C77.8297 33 77.3497 32.838 77.0497 32.514C76.7497 32.19 76.5997 31.728 76.5997 31.128V23.28H78.5437V30.642C78.5437 31.182 78.8077 31.452 79.3357 31.452H80.1637V33H78.4897ZM82.0832 33V23.28H84.0452V26.34H86.8532C87.5612 26.34 88.0472 26.19 88.3112 25.89C88.5872 25.578 88.7252 25.128 88.7252 24.54V23.28H90.6692V24.486C90.6692 25.086 90.5612 25.614 90.3452 26.07C90.1412 26.526 89.7632 26.856 89.2112 27.06C89.7632 27.252 90.1292 27.558 90.3092 27.978C90.4892 28.386 90.5792 28.866 90.5792 29.418V33H88.6352V29.652C88.6352 28.956 88.5032 28.482 88.2392 28.23C87.9752 27.966 87.4892 27.834 86.7812 27.834H84.0452V33H82.0832ZM96.5645 33.18C95.8085 33.18 95.1305 33.012 94.5305 32.676C93.9305 32.34 93.4565 31.812 93.1085 31.092C92.7605 30.36 92.5865 29.424 92.5865 28.284C92.5865 26.604 92.8685 25.32 93.4325 24.432C93.9965 23.544 94.7825 23.1 95.7905 23.1C96.2825 23.1 96.6725 23.19 96.9605 23.37C97.2605 23.538 97.5185 23.76 97.7345 24.036C97.9865 23.76 98.3165 23.538 98.7245 23.37C99.1325 23.19 99.5465 23.1 99.9665 23.1C100.747 23.1 101.329 23.334 101.713 23.802C102.097 24.258 102.289 24.894 102.289 25.71V33H100.327V25.998C100.327 25.542 100.261 25.212 100.129 25.008C100.009 24.792 99.7565 24.684 99.3725 24.684C99.1325 24.684 98.9105 24.75 98.7065 24.882C98.5025 25.014 98.3525 25.224 98.2565 25.512H97.1765C97.0325 25.224 96.8825 25.014 96.7265 24.882C96.5705 24.75 96.3485 24.684 96.0605 24.684C95.4365 24.684 95.0165 25.014 94.8005 25.674C94.5845 26.334 94.4765 27.204 94.4765 28.284C94.4765 29.52 94.6865 30.384 95.1065 30.876C95.5265 31.368 96.1265 31.614 96.9065 31.614C97.1345 31.614 97.3565 31.602 97.5725 31.578C97.8005 31.554 97.9925 31.518 98.1485 31.47V32.964C97.9445 33.036 97.7165 33.09 97.4645 33.126C97.2125 33.162 96.9125 33.18 96.5645 33.18ZM100.623 37.536V35.304H99.4892L99.5792 34.026H102.297V37.536H100.623Z" fill="white"/>
</svg>