<svg width="267" height="87" viewBox="0 0 267 87" fill="none" xmlns="http://www.w3.org/2000/svg">
<g filter="url(#filter0_d_1_4932)">
<path d="M34.8627 59.658C36.2937 60.0492 37.7897 60.2774 39.4157 60.2774C44.3265 60.2774 48.5217 58.517 51.969 54.9962C52.847 54.116 53.6276 53.1706 54.3105 52.16L69.1727 61.777C67.9044 63.7982 66.3434 65.7216 64.5222 67.5472C57.5626 74.5236 49.2047 77.9792 39.4483 77.9792C29.6593 77.9792 21.3339 74.5236 14.4068 67.5798C7.44726 60.7012 4 52.323 4 42.543C4 32.7304 7.44726 24.3848 14.3743 17.441C21.3013 10.5298 29.6268 7.0416 39.4157 7.0416C49.2047 7.0416 57.5626 10.4972 64.4897 17.3758C66.6361 19.5926 68.4898 21.9724 70.0508 24.4826L34.8627 59.658ZM44.0663 25.2976C42.5703 24.9716 41.0418 24.776 39.4157 24.776C34.5701 24.776 30.4073 26.5038 26.9275 29.9594C23.4478 33.415 21.7241 37.5878 21.7241 42.543C21.7241 44.173 21.9193 45.6726 22.342 47.107L44.0663 25.2976Z" fill="white"/>
<path d="M34.5093 59.3044L33.9002 59.9132L34.7309 60.1403C36.201 60.5422 37.7413 60.7774 39.4157 60.7774C44.4601 60.7774 48.7836 58.9634 52.3246 55.3477C53.1065 54.5637 53.8135 53.7287 54.4452 52.8427L68.4835 61.9266C67.2869 63.7616 65.8407 65.5176 64.1682 67.1941C57.3022 74.0767 49.0715 77.4792 39.4482 77.4792C29.7923 77.4792 21.5942 74.0766 14.7608 67.2267L14.7583 67.2242C7.8951 60.4409 4.5 52.1913 4.5 42.543C4.5 32.8628 7.89473 24.6444 14.7279 17.7945C21.5623 10.976 29.7611 7.5416 39.4157 7.5416C49.0708 7.5416 57.301 10.9437 64.1339 17.7271C66.1585 19.8186 67.9187 22.0559 69.4152 24.411L34.5093 59.3044ZM44.4205 25.6505L45.065 25.0035L44.1727 24.8091C42.6474 24.4767 41.0829 24.276 39.4157 24.276C34.4363 24.276 30.1474 26.0573 26.5752 29.6046C22.9997 33.1553 21.2241 37.4564 21.2241 42.543C21.2241 44.2139 21.4243 45.7618 21.8624 47.2484L22.1009 48.0576L22.6963 47.4599L44.4205 25.6505Z" stroke="white"/>
</g>
<path d="M103.32 33.5454H74.7014V51.5406H103.32V33.5454Z" fill="#98CFE1"/>
<path d="M183.29 33.578H167.062H152.785V51.4754H183.258V67.156H158.671C145.11 67.156 134.085 56.1046 134.085 42.5104C134.085 28.9162 145.11 17.8648 158.671 17.8648H169.371V0H158.671C135.289 0 116.231 19.071 116.231 42.543C116.231 66.015 135.256 85.0861 158.671 85.0861H192.168C197.112 85.0861 201.079 81.0763 201.079 76.1537V51.508V33.578H183.29Z" fill="#E99A40"/>
<path d="M241.308 0H180.363V17.8974H241.308C245.633 17.8974 249.146 21.4182 249.146 25.754C249.146 30.0898 245.633 33.6106 241.308 33.6106H231.942H214.088V85.0861H231.942V51.508H241.308C255.455 51.508 266.967 39.9676 266.967 25.7866C266.967 11.6056 255.487 0 241.308 0Z" fill="#F49720"/>
<defs>
<filter id="filter0_d_1_4932" x="0" y="7.0416" width="74.0508" height="78.9377" filterUnits="userSpaceOnUse" color-interpolation-filters="sRGB">
<feFlood flood-opacity="0" result="BackgroundImageFix"/>
<feColorMatrix in="SourceAlpha" type="matrix" values="0 0 0 0 0 0 0 0 0 0 0 0 0 0 0 0 0 0 127 0" result="hardAlpha"/>
<feOffset dy="4"/>
<feGaussianBlur stdDeviation="2"/>
<feComposite in2="hardAlpha" operator="out"/>
<feColorMatrix type="matrix" values="0 0 0 0 0 0 0 0 0 0 0 0 0 0 0 0 0 0 0.25 0"/>
<feBlend mode="normal" in2="BackgroundImageFix" result="effect1_dropShadow_1_4932"/>
<feBlend mode="normal" in="SourceGraphic" in2="effect1_dropShadow_1_4932" result="shape"/>
</filter>
</defs>
</svg>
