<svg xmlns="http://www.w3.org/2000/svg" id="Layer_1" style="enable-background:new 0 0 200 28.1" viewBox="0 0 200 28.1"><style type="text/css">.st0{fill:#146aff}</style><path d="M200 18.2c0-5.8-4-9.2-9.2-9.2-5-.2-9.2 3.7-9.4 8.8v.7c-.2 5.1 3.7 9.4 8.8 9.6h.6c1.9 0 3.8-.5 5.5-1.4 1.8-1 3-2.7 3.5-4.6H196c-.9 1.7-2.6 2.5-5 2.5-3.2 0-5.6-2.5-5.6-4.9H200v-1.5zm-14.6-1.8c.5-2.5 2.8-4.2 5.3-4 2.7 0 5 1.6 5.3 4h-10.6zM14.5 20.9c-1.3 2.7-4.6 3.9-7.3 2.6S3.3 19 4.6 16.2s4.6-3.9 7.3-2.6c1.2.6 2.2 1.6 2.7 2.8h4.2c-1.2-5.1-6.4-8.2-11.5-7s-8.2 6.4-7 11.5 6.4 8.2 11.5 7c3.5-.8 6.2-3.5 7-7h-4.3zM34 9.8c-1.2-.5-2.5-.8-3.8-.8-1.4 0-2.7.4-3.9 1.2v-.5h-3.9v17.8h3.9V19c-.1-1.2 0-2.3.2-3.5v-.1c.2-.8.8-1.4 1.5-1.8 1.3-.8 2.9-.8 4.2 0L34 9.8zM48.9 9.7v8.5c.1 1.2 0 2.3-.2 3.5v.1c-.2.8-.7 1.4-1.4 1.8-1.3.8-2.9.8-4.2 0-.7-.4-1.2-1-1.5-1.8v-.1c-.2-1.1-.3-2.3-.2-3.5V9.7h-4v9.7c-.1 1.6.1 3.1.7 4.6.6 1.5 1.8 2.6 3.2 3.2 1.2.6 2.5.8 3.8.8 1.4 0 2.7-.4 3.8-1.2v.5h3.9V9.7h-3.9zM61.5 27.5V19c-.1-1.2 0-2.3.2-3.5v-.1c.2-.8.7-1.4 1.4-1.8 1.3-.8 2.9-.8 4.2 0 .7.4 1.2 1 1.4 1.8v.1c.2 1.1.3 2.3.2 3.5v8.5H73v-9.7c.1-1.6-.1-3.2-.7-4.7s-1.8-2.6-3.2-3.2C68 9.3 66.7 9 65.4 9c-1.4 0-2.7.4-3.8 1.2v-.5h-3.9v17.8h3.8zM91.2 20.9c-1.3 2.7-4.6 3.9-7.3 2.6-2.7-1.3-3.9-4.6-2.6-7.3 1.3-2.7 4.6-3.9 7.3-2.6 1.2.6 2.2 1.6 2.7 2.8h4.2c-1.2-5.1-6.4-8.2-11.5-7-5.1 1.2-8.2 6.4-7 11.5 1.2 5.1 6.4 8.2 11.5 7 3.5-.8 6.2-3.5 7-7h-4.3zM103.1 27.5V19c-.1-1.2 0-2.3.2-3.5v-.1c.2-.8.8-1.4 1.4-1.8 1.3-.8 2.9-.8 4.2 0 .7.4 1.2 1 1.4 1.8v.1c.2 1.1.3 2.3.2 3.5v8.5h3.9v-9.7c.1-1.6-.1-3.2-.7-4.7s-1.8-2.6-3.2-3.2c-1.2-.6-2.5-.9-3.8-.8-1.4 0-2.7.4-3.9 1.2V0H99v27.5h4.1zM128.7 9h-.7c-1.7.1-3.3.7-4.7 1.6V0h-3.9v27.4h3.9v-1c4.4 3 10.3 1.8 13.3-2.5 1.1-1.6 1.6-3.4 1.6-5.3.1-5.3-4.2-9.6-9.5-9.6zm5.5 10.3v.2c0 .2-.1.5-.1.7-.1.2-.2.5-.3.7v.1c-.6 1.2-1.6 2.1-2.8 2.7-.3.2-.7.3-1.1.4l-.5.1H127.8c-.5-.1-1-.2-1.4-.4h-.1c-.4-.2-.9-.5-1.2-.8-.4-.3-.7-.7-1-1.2-.1-.2-.3-.4-.4-.7-.6-1.4-.6-3.1.1-4.5.8-1.7 2.5-2.9 4.4-3.1h.6c3 0 5.5 2.5 5.5 5.5 0-.1-.1.1-.1.3zM178.3 15v-.1c0-2.9-2.2-5.9-7.2-5.9s-7.1 2.9-7.2 5.8v.2c.1 1.7 1 3.8 4.8 4.7l3.3.8c.9.2 2.3.7 2.4 1.8 0 1.5-1.9 2.3-3.3 2.3-1.6 0-3.3-.9-3.3-2.3v-.1h-3.9v.1c0 2.9 2.2 5.9 7.2 5.9s7.2-3 7.2-5.9v-.1c-.1-1.7-1-3.9-4.8-4.7l-3.3-.7c-.7-.2-2.4-.6-2.4-1.7 0-1.7 1.7-2.3 3.3-2.3s3.3.9 3.3 2.3V15h3.9zM141.5 18.6c0 3.9 2.4 7.5 6.1 8.9 2.9 1.2 6.2.8 8.8-1v1h3.9V9.7h-3.9v1c-1.4-1-3-1.5-4.7-1.6h-.7c-5.2-.1-9.5 4.2-9.5 9.5zm4 0c0-3 2.5-5.5 5.5-5.5 2.1 0 4.1 1.3 5 3.2.3.7.5 1.5.5 2.3 0 .8-.2 1.5-.5 2.2-.1.2-.2.5-.4.7-.3.4-.6.8-1 1.2-.4.3-.8.6-1.2.8h-.1c-.4.2-.9.4-1.4.4h-.2c-.2 0-.5.1-.7.1h-.7l-.5-.1c-.4-.1-.7-.2-1.1-.4-1.2-.5-2.1-1.5-2.7-2.6v-.1c-.1-.2-.2-.5-.3-.7-.1-.2-.1-.5-.1-.7v-.2c0-.2 0-.4-.1-.6z" class="st0"/></svg>